<svg xmlns="http://www.w3.org/2000/svg" xmlns:xlink="http://www.w3.org/1999/xlink" width="500" zoomAndPan="magnify" viewBox="0 0 375 374.999991" height="500" preserveAspectRatio="xMidYMid meet" version="1.2"><defs><clipPath id="84b1f56360"><path d="M 37 89 L 213 89 L 213 264.875 L 37 264.875 Z M 37 89 "/></clipPath></defs><g id="eefcd8d5b2"><g clip-rule="nonzero" clip-path="url(#84b1f56360)"><path style=" stroke:none;fill-rule:nonzero;fill:#259922;fill-opacity:1;" d="M 106.957031 94.84375 C 117.714844 87.90625 132.472656 87.890625 143.214844 94.859375 C 153.496094 101.007812 160.003906 112.636719 160.1875 124.589844 C 168.746094 124.671875 177.308594 124.542969 185.867188 124.636719 C 190.476562 124.277344 194.820312 127.984375 195.082031 132.609375 C 200.886719 173.164062 206.675781 213.734375 212.367188 254.304688 C 213.5625 259.488281 209.054688 264.882812 203.707031 264.507812 C 151.265625 264.589844 98.804688 264.574219 46.34375 264.523438 C 41.027344 264.867188 36.550781 259.535156 37.667969 254.371094 C 43.425781 213.816406 49.214844 173.246094 55.035156 132.707031 C 55.332031 128.117188 59.542969 124.3125 64.171875 124.636719 C 72.765625 124.523438 81.355469 124.6875 89.933594 124.621094 C 90.164062 112.652344 96.640625 101.007812 106.957031 94.84375 Z M 107.300781 124.554688 C 119.15625 124.6875 130.996094 124.621094 142.851562 124.554688 C 142.375 115.304688 134.636719 106.84375 125.074219 107.125 C 115.535156 106.84375 107.761719 115.292969 107.300781 124.554688 Z M 107.300781 124.554688 "/></g><g style="fill:#ffffff;fill-opacity:1;"><g transform="translate(46.002361, 235.4618)"><path style="stroke:none" d="M 42.375 -27.484375 L 42.375 -40.078125 L 74.859375 -40.078125 L 74.859375 -10.359375 C 71.734375 -7.296875 67.175781 -4.585938 61.1875 -2.234375 C 55.207031 0.109375 49.125 1.28125 42.9375 1.28125 C 35.113281 1.28125 28.296875 -0.359375 22.484375 -3.640625 C 16.671875 -6.921875 12.300781 -11.601562 9.375 -17.6875 C 6.457031 -23.78125 5 -30.410156 5 -37.578125 C 5 -44.992188 6.46875 -51.609375 9.40625 -57.421875 C 12.34375 -63.234375 16.582031 -67.785156 22.125 -71.078125 C 27.664062 -74.378906 34.316406 -76.03125 42.078125 -76.03125 C 51.421875 -76.03125 58.703125 -74.082031 63.921875 -70.1875 C 69.140625 -66.300781 72.476562 -60.941406 73.9375 -54.109375 L 58.90625 -51.296875 C 57.84375 -54.898438 55.867188 -57.765625 52.984375 -59.890625 C 50.097656 -62.015625 46.460938 -63.078125 42.078125 -63.078125 C 35.546875 -63.078125 30.320312 -60.984375 26.40625 -56.796875 C 22.5 -52.617188 20.546875 -46.4375 20.546875 -38.25 C 20.546875 -29.375 22.515625 -22.707031 26.453125 -18.25 C 30.398438 -13.800781 35.570312 -11.578125 41.96875 -11.578125 C 45.09375 -11.578125 48.257812 -12.203125 51.46875 -13.453125 C 54.6875 -14.710938 57.398438 -16.210938 59.609375 -17.953125 L 59.609375 -27.484375 Z M 42.375 -27.484375 "/></g></g><g style="fill:#ffffff;fill-opacity:1;"><g transform="translate(127.225433, 235.4618)"><path style="stroke:none" d="M 7.75 0 L 7.75 -74.765625 L 22.4375 -74.765625 L 53.03125 -24.828125 L 53.03125 -74.765625 L 67.0625 -74.765625 L 67.0625 0 L 51.90625 0 L 21.71875 -48.75 L 21.71875 0 Z M 7.75 0 "/></g></g><g style="fill:#000000;fill-opacity:1;"><g transform="translate(211.516485, 237.184395)"><path style="stroke:none" d="M 7.5 -61.484375 L 7.5 -74.75 L 21.828125 -74.75 L 21.828125 -61.484375 Z M 7.5 0 L 7.5 -54.203125 L 21.828125 -54.203125 L 21.828125 0 Z M 7.5 0 "/></g></g><g style="fill:#000000;fill-opacity:1;"><g transform="translate(240.526582, 237.184395)"><path style="stroke:none" d="M 1.28125 -54.203125 L 9.171875 -54.203125 L 9.171875 -58.28125 C 9.171875 -62.800781 9.664062 -66.171875 10.65625 -68.390625 C 11.644531 -70.617188 13.421875 -72.445312 15.984375 -73.875 C 18.546875 -75.300781 21.851562 -76.015625 25.90625 -76.015625 C 29.945312 -76.015625 33.90625 -75.390625 37.78125 -74.140625 L 35.953125 -64.25 C 33.640625 -64.789062 31.425781 -65.0625 29.3125 -65.0625 C 27.238281 -65.0625 25.75 -64.578125 24.84375 -63.609375 C 23.945312 -62.640625 23.5 -60.757812 23.5 -57.96875 L 23.5 -54.203125 L 34.265625 -54.203125 L 34.265625 -42.9375 L 23.5 -42.9375 L 23.5 0 L 9.171875 0 L 9.171875 -42.9375 L 1.28125 -42.9375 Z M 1.28125 -54.203125 "/></g></g><g style="fill:#000000;fill-opacity:1;"><g transform="translate(275.2979, 237.184395)"><path style="stroke:none" d="M 0.71875 -54.203125 L 15.953125 -54.203125 L 28.90625 -15.65625 L 41.546875 -54.203125 L 56.390625 -54.203125 L 33.859375 7.390625 C 32.222656 11.472656 30.546875 14.472656 28.828125 16.390625 C 27.117188 18.304688 25.003906 19.707031 22.484375 20.59375 C 19.972656 21.476562 17 21.921875 13.5625 21.921875 C 10.769531 21.921875 8.050781 21.648438 5.40625 21.109375 L 4.1875 9.9375 C 6.394531 10.34375 8.414062 10.546875 10.25 10.546875 C 13.582031 10.546875 16.046875 9.566406 17.640625 7.609375 C 19.234375 5.660156 20.457031 3.160156 21.3125 0.109375 Z M 0.71875 -54.203125 "/></g></g></g></svg>